<svg width="48" height="48" viewBox="0 0 48 48" fill="none" xmlns="http://www.w3.org/2000/svg">
<path d="M11.25 4.5V0H15.75V4.5H29.25V0H33.75V4.5H42.75C43.9927 4.5 45 5.50737 45 6.75V18H40.5V9H33.75V13.5H29.25V9H15.75V13.5H11.25V9H4.5V40.5H18V45H2.25C1.00737 45 0 43.9927 0 42.75V6.75C0 5.50737 1.00737 4.5 2.25 4.5H11.25ZM33.75 24.75C28.7795 24.75 24.75 28.7795 24.75 33.75C24.75 38.7205 28.7795 42.75 33.75 42.75C38.7205 42.75 42.75 38.7205 42.75 33.75C42.75 28.7795 38.7205 24.75 33.75 24.75ZM20.25 33.75C20.25 26.2942 26.2942 20.25 33.75 20.25C41.2058 20.25 47.25 26.2942 47.25 33.75C47.25 41.2058 41.2058 47.25 33.75 47.25C26.2942 47.25 20.25 41.2058 20.25 33.75ZM31.5 27V34.6819L36.659 39.841L39.841 36.659L36 32.8181V27H31.5Z" fill="black"/>
</svg>
