<svg width="41" height="49" viewBox="0 0 41 49" fill="none" xmlns="http://www.w3.org/2000/svg">
<path d="M20.25 42.5239L31.3868 31.3868C37.5376 25.2362 37.5376 15.2638 31.3868 9.11306C25.2362 2.96231 15.2638 2.96231 9.11306 9.11306C2.96231 15.2638 2.96231 25.2362 9.11306 31.3868L20.25 42.5239ZM20.25 48.8878L5.93109 34.569C-1.97703 26.6607 -1.97703 13.8392 5.93109 5.93109C13.8392 -1.97703 26.6607 -1.97703 34.569 5.93109C42.4771 13.8392 42.4771 26.6607 34.569 34.569L20.25 48.8878ZM20.25 24.75C22.7353 24.75 24.75 22.7353 24.75 20.25C24.75 17.7647 22.7353 15.75 20.25 15.75C17.7647 15.75 15.75 17.7647 15.75 20.25C15.75 22.7353 17.7647 24.75 20.25 24.75ZM20.25 29.25C15.2794 29.25 11.25 25.2205 11.25 20.25C11.25 15.2794 15.2794 11.25 20.25 11.25C25.2205 11.25 29.25 15.2794 29.25 20.25C29.25 25.2205 25.2205 29.25 20.25 29.25Z" fill="black"/>
</svg>


