<svg width="54" height="54" viewBox="0 0 54 54" fill="none" xmlns="http://www.w3.org/2000/svg">
<path d="M27 9C17.0589 9 9 17.0589 9 27H15.75C18.2353 27 20.25 29.0147 20.25 31.5V42.75C20.25 45.2353 18.2353 47.25 15.75 47.25H9C6.51472 47.25 4.5 45.2353 4.5 42.75V27C4.5 14.5736 14.5736 4.5 27 4.5C39.4263 4.5 49.5 14.5736 49.5 27V42.75C49.5 45.2353 47.4853 47.25 45 47.25H38.25C35.7647 47.25 33.75 45.2353 33.75 42.75V31.5C33.75 29.0147 35.7647 27 38.25 27H45C45 17.0589 36.9412 9 27 9ZM9 31.5V42.75H15.75V31.5H9ZM38.25 31.5V42.75H45V31.5H38.25Z" fill="black"/>
</svg>
