<svg width="19" height="20" viewBox="0 0 19 20" fill="none" xmlns="http://www.w3.org/2000/svg">
<path d="M8.10001 0V6.41396C7.69431 6.33909 7.27641 6.3 6.85 6.3C3.06685 6.3 0 9.3668 0 13.15C0 16.9332 3.06685 20 6.85 20C10.6331 20 13.7 16.9332 13.7 13.15V9.4136C14.7362 9.8539 15.8658 10.1 17.1001 10.1H18.1001V4.5H17.1001C15.1962 4.5 13.7 2.96259 13.7 1V0H8.10001ZM10.1 2H11.7876C12.1814 4.22009 13.8669 5.99607 16.1001 6.4091V8.0282C15.062 7.87602 14.1249 7.48645 13.2563 6.905L11.7 5.86327V13.15C11.7 15.8286 9.52861 18 6.85 18C4.17142 18 2 15.8286 2 13.15C2 10.4714 4.17142 8.3 6.85 8.3C6.93392 8.3 7.0173 8.3021 7.10011 8.3063V9.9095C7.01756 9.9032 6.93415 9.9 6.85 9.9C5.05508 9.9 3.6 11.3551 3.6 13.15C3.6 14.9449 5.05508 16.4 6.85 16.4C8.64491 16.4 10.1 14.9449 10.1 13.15C10.1 9.4334 10.0988 5.71665 10.1 2ZM5.6 13.15C5.6 12.4596 6.15964 11.9 6.85 11.9C7.54031 11.9 8.10001 12.4596 8.10001 13.15C8.10001 13.8404 7.54031 14.4 6.85 14.4C6.15964 14.4 5.6 13.8404 5.6 13.15Z" fill="black"/>
</svg>
